<?xml version="1.0" encoding="utf-8"?>
<!-- Generator: Adobe Illustrator 16.0.0, SVG Export Plug-In . SVG Version: 6.00 Build 0)  -->
<!DOCTYPE svg PUBLIC "-//W3C//DTD SVG 1.1//EN" "http://www.w3.org/Graphics/SVG/1.1/DTD/svg11.dtd">
<svg version="1.1" id="Layer_1" xmlns="http://www.w3.org/2000/svg" xmlns:xlink="http://www.w3.org/1999/xlink" x="0px" y="0px"
	 width="52px" height="60px" viewBox="0 0 52 60" enable-background="new 0 0 52 60" xml:space="preserve">
<g id="XMLID_229_">
	<g id="XMLID_690_">
		<g id="XMLID_691_">
			<g>
				<g id="XMLID_44_">
					<g id="XMLID_48_">
						<path id="XMLID_49_" fill="#009ECE" d="M26.643,46.756v-6.841c7.239,0,12.86-7.18,10.079-14.8c-1.02-2.82-3.279-5.08-6.1-6.1
							c-7.619-2.76-14.8,2.84-14.8,10.08l0,0H9.003c0-11.541,11.16-20.541,23.26-16.76c5.279,1.659,9.5,5.859,11.14,11.139
							C47.183,35.596,38.202,46.756,26.643,46.756z"/>
					</g>
					<polygon id="XMLID_47_" fill="#009ECE" points="26.663,39.936 19.862,39.936 19.862,33.135 19.862,33.135 26.663,33.135 
						26.663,33.135 					"/>
					<polygon id="XMLID_46_" fill="#009ECE" points="19.862,45.176 14.622,45.176 14.622,45.176 14.622,39.936 19.862,39.936 					
						"/>
					<path id="XMLID_45_" fill="#009ECE" d="M14.622,39.936h-4.38l0,0v-4.381l0,0h4.38l0,0V39.936z"/>
				</g>
			</g>
		</g>
	</g>
</g>
</svg>
